<svg width="62" height="62" viewBox="0 0 62 62" fill="none" xmlns="http://www.w3.org/2000/svg">
<path fill-rule="evenodd" clip-rule="evenodd" d="M57.2729 29.9404L49.7089 22.4074C48.9494 21.6531 47.7249 21.6531 46.9705 22.4126C46.2162 23.1721 46.2188 24.3966 46.9757 25.1509L51.2124 29.3721H43.6303C43.6561 30.6637 43.6561 31.9554 43.6303 33.2471H51.2175L46.9757 37.4734C46.2188 38.2277 46.2162 39.4548 46.9705 40.2143C47.3477 40.5941 47.8463 40.7826 48.3423 40.7826C48.8357 40.7826 49.3317 40.5941 49.7089 40.2195L57.2729 32.6839C57.6397 32.3222 57.8438 31.8262 57.8438 31.3121C57.8438 30.7981 57.6397 30.3046 57.2729 29.9404Z" fill="#E60000"/>
<path fill-rule="evenodd" clip-rule="evenodd" d="M22.3171 31.31C22.3171 30.2508 23.1696 29.3725 24.2546 29.3725L43.6303 29.3721C43.6045 26.1171 43.4229 22.8625 43.1646 19.6075V19.5817C42.2088 9.17083 37.4813 5.8125 23.7896 5.8125C4.15625 5.8125 4.15625 13.175 4.15625 31C4.15625 48.825 4.15625 56.1875 23.7896 56.1875C37.4813 56.1875 42.2088 52.8292 43.1646 42.3925C43.4229 39.37 43.5786 36.3212 43.6303 33.2471L24.2546 33.2475C23.1696 33.2475 22.3171 32.395 22.3171 31.31Z" fill="#E60000"/>
</svg>
