<svg width="14" height="14" viewBox="0 0 14 14" fill="none" xmlns="http://www.w3.org/2000/svg">
<path fill-rule="evenodd" clip-rule="evenodd" d="M1.75 7C1.75 4.81266 1.75 3.71898 2.30703 2.95229C2.48693 2.70468 2.70468 2.48693 2.95229 2.30703C3.71898 1.75 4.81266 1.75 7 1.75C9.18734 1.75 10.281 1.75 11.0477 2.30703C11.2953 2.48693 11.5131 2.70468 11.693 2.95229C12.25 3.71898 12.25 4.81266 12.25 7C12.25 9.18734 12.25 10.281 11.693 11.0477C11.5131 11.2953 11.2953 11.5131 11.0477 11.693C10.281 12.25 9.18734 12.25 7 12.25C4.81266 12.25 3.71898 12.25 2.95229 11.693C2.70468 11.5131 2.48693 11.2953 2.30703 11.0477C1.75 10.281 1.75 9.18734 1.75 7ZM7 3.64583C7.24162 3.64583 7.4375 3.84171 7.4375 4.08333V7.58333C7.4375 7.82496 7.24162 8.02083 7 8.02083C6.75838 8.02083 6.5625 7.82496 6.5625 7.58333V4.08333C6.5625 3.84171 6.75838 3.64583 7 3.64583ZM7 9.91667C7.32217 9.91667 7.58333 9.6555 7.58333 9.33333C7.58333 9.01117 7.32217 8.75 7 8.75C6.67783 8.75 6.41667 9.01117 6.41667 9.33333C6.41667 9.6555 6.67783 9.91667 7 9.91667Z" fill="#E60000"/>
</svg>
